<svg xmlns="http://www.w3.org/2000/svg" xmlns:xlink="http://www.w3.org/1999/xlink" width="120.723" height="63.211" viewBox="0 0 120.723 63.211">
  <defs>
    <filter id="Path_7493" x="0" y="0" width="120.723" height="63.211" filterUnits="userSpaceOnUse">
      <feOffset dy="10" input="SourceAlpha"/>
      <feGaussianBlur stdDeviation="5" result="blur"/>
      <feFlood flood-color="#84fbfd" flood-opacity="0.102"/>
      <feComposite operator="in" in2="blur"/>
      <feComposite in="SourceGraphic"/>
    </filter>
  </defs>
  <g id="Group_5328" data-name="Group 5328" transform="translate(-141.871 -1339.789)">
    <g transform="matrix(1, 0, 0, 1, 141.87, 1339.79)" filter="url(#Path_7493)">
      <g id="Path_7493-2" data-name="Path 7493" transform="translate(15 5)" fill="#071b41">
        <path d="M 9.679795265197754 32.7109375 L 0.5743831992149353 16.60550308227539 L 9.679807662963867 0.5000900030136108 L 81.04287719726562 0.4999966323375702 L 90.14830017089844 16.60549545288086 L 81.04286956787109 32.7109260559082 L 9.679795265197754 32.7109375 Z" stroke="none"/>
        <path d="M 80.75117492675781 1.000003814697266 L 9.97149658203125 1.000080108642578 L 1.148757934570312 16.60550498962402 L 9.97149658203125 32.21092987060547 L 80.75117492675781 32.21092987060547 L 89.57392120361328 16.60550308227539 L 80.75117492675781 1.000003814697266 M 81.33456420898438 3.814697265625e-06 L 90.72267913818359 16.60550498962402 L 81.33456420898438 33.21092987060547 L 9.388099670410156 33.21092987060547 L 0 16.60550498962402 L 9.388099670410156 8.0108642578125e-05 L 81.33456420898438 3.814697265625e-06 Z" stroke="none" fill="#33696a"/>
      </g>
    </g>
    <path id="_8726180_rotate_icon" data-name="8726180_rotate_icon" d="M12.13,6C6.356,6,2,8.178,2,11.065c0,2.482,3.231,4.437,7.81,4.943l-.425.415a1.017,1.017,0,1,0,1.438,1.438l2.026-2.026a1.047,1.047,0,0,0,0-1.438l-2.026-2.026A1.017,1.017,0,0,0,9.385,13.81l.122.111c-3.454-.486-5.48-1.844-5.48-2.857,0-1.236,3.16-3.039,8.1-3.039s8.1,1.8,8.1,3.039c0,.841-1.469,2.026-4.265,2.634a1.013,1.013,0,1,0,.405,1.985c3.7-.81,5.885-2.532,5.885-4.619C22.259,8.178,17.9,6,12.13,6Z" transform="translate(190.102 1350.229)" fill="#84fbfd"/>
  </g>
</svg>
