
    <svg
      id="Group_5321"
      data-name="Group 5321"
      xmlns="http://www.w3.org/2000/svg"
      xmlns:xlink="http://www.w3.org/1999/xlink"
      width="29.732"
      height="30.01"
      viewBox="0 0 29.732 30.01"
    >
      <defs>
        <linearGradient
          id="linear-gradient"
          x1="0.5"
          x2="0.5"
          y2="0.996"
          gradientUnits="objectBoundingBox"
        >
          <stop offset="0" stop-color="#41bce7" />
          <stop offset="1" stop-color="#22a6dc" />
        </linearGradient>
      </defs>
      <g
        id="_3069758_circle_discord_gaming_messenger_round_icon_icon"
        data-name="3069758_circle_discord_gaming_messenger_round icon_icon"
        transform="translate(0 0.278)"
      >
        <circle
          id="ellipse"
          cx="14.866"
          cy="14.866"
          r="14.866"
          transform="translate(0 0)"
          fill="#8c9eff"
        />
        <path
          id="logo"
          d="M111.848,141.316a8.492,8.492,0,0,0-4.119-1.716l-.2.419a7.887,7.887,0,0,1,3.909,2.153,11.989,11.989,0,0,0-12.362,0,8.053,8.053,0,0,1,3.909-2.153l-.2-.419a8.444,8.444,0,0,0-4.119,1.716s-2.108,3.185-2.47,9.437a7.614,7.614,0,0,0,5.354,2.571l.674-.938a8.213,8.213,0,0,1-3.558-2.495,11.2,11.2,0,0,0,13.189,0,8.213,8.213,0,0,1-3.558,2.495l.674.938a7.614,7.614,0,0,0,5.354-2.571C113.956,144.5,111.848,141.316,111.848,141.316Zm-9.275,7.72a1.742,1.742,0,1,1,1.445-1.716A1.6,1.6,0,0,1,102.574,149.037Zm5.36,0a1.742,1.742,0,1,1,1.445-1.716A1.6,1.6,0,0,1,107.933,149.037Z"
          transform="translate(-90.526 -131.466)"
          fill="#fff"
        />
      </g>
      <g
        id="_3787425_telegram_logo_messanger_social_social_media_icon"
        data-name="3787425_telegram_logo_messanger_social_social media_icon"
        transform="translate(0)"
      >
        <circle
          id="Ellipse_6"
          data-name="Ellipse 6"
          cx="14.866"
          cy="14.866"
          r="14.866"
          fill="url(#linear-gradient)"
        />
        <g
          id="Group_2960"
          data-name="Group 2960"
          transform="translate(5.31 8.038)"
        >
          <path
            id="Path_5572"
            data-name="Path 5572"
            d="M108.233,138.941l-2.654,13.385a.983.983,0,0,1-1.394.482l-6.126-4.7-2.23-1.074-3.751-1.26s-.575-.2-.633-.65.65-.685.65-.685l14.912-5.848C107.008,138.587,108.233,138.047,108.233,138.941Z"
            transform="translate(-91.442 -138.426)"
            fill="#fff"
          />
          <path
            id="Path_5573"
            data-name="Path 5573"
            d="M168.754,196.8s-.18-.017-.4-.72S167,191.659,167,191.659l9.007-5.72s.523-.314.5,0c0,0,.093.058-.186.314s-7.073,6.37-7.073,6.37"
            transform="translate(-162.612 -183.049)"
            fill="#d2e4f0"
          />
          <path
            id="Path_5574"
            data-name="Path 5574"
            d="M200.116,306.341l-2.422,2.212a.417.417,0,0,1-.395.052l.465-4.106"
            transform="translate(-191.153 -294.856)"
            fill="#b5cfe4"
          />
        </g>
      </g>
    </svg>
